<?xml version="1.0" encoding="utf-8"?>
<!-- Generator: Adobe Illustrator 27.0.1, SVG Export Plug-In . SVG Version: 6.00 Build 0)  -->
<svg version="1.1" xmlns="http://www.w3.org/2000/svg" xmlns:xlink="http://www.w3.org/1999/xlink" x="0px" y="0px"
	 viewBox="0 0 1000 1000" style="enable-background:new 0 0 1000 1000;" xml:space="preserve">
<style type="text/css">
	.st0{display:none;}
	.st1{display:inline;fill:none;stroke:#000000;stroke-width:60;stroke-linejoin:round;stroke-miterlimit:10;}
	.st2{fill:none;stroke:#c6d0f5;stroke-width:60;stroke-linejoin:round;stroke-miterlimit:10;}
</style>
<g id="Layer_1" class="st0">
	<path class="st1" d="M875,500c0,25.7-2.6,50.8-7.5,75c-62.2-12.7-124.8-22.1-187.7-28.3c-0.1,0-0.2,0-0.4,0c-0.7-0.1-1.3-0.1-2-0.2
		c-2.6-0.3-5.2-0.5-7.8-0.7c-1-0.1-2.1-0.2-3.2-0.3c-3-0.3-6.1-0.5-9.1-0.8c-0.3,0-0.6-0.1-0.9-0.1c-3.2-0.3-6.5-0.5-9.7-0.8
		c-0.9-0.1-1.7-0.2-2.6-0.2c-2.8-0.2-5.6-0.4-8.3-0.6c-1.6-0.1-3.2-0.2-4.8-0.3c-1.8-0.1-3.6-0.3-5.4-0.4c-2.6-0.2-5.2-0.4-7.7-0.5
		c-1.1-0.1-2.3-0.2-3.4-0.2c-2.5-0.2-5-0.3-7.4-0.4c-1.5-0.1-3-0.2-4.5-0.3c-1.5-0.1-3-0.2-4.5-0.2c-2.6-0.2-5.3-0.3-8-0.4
		c-3.3-0.2-6.5-0.3-9.8-0.4c-2.6-0.1-5.1-0.2-7.7-0.3c-6.9-0.3-13.8-0.5-20.8-0.7c-2.1-0.1-4.3-0.1-6.4-0.2
		c-7.6-0.2-15.2-0.3-22.8-0.4c-7.5-0.1-15-0.1-22.5-0.1c-123.1,0-246.2,12.4-367.5,37.1c-4.9-24.2-7.5-49.3-7.5-75
		c0-207.1,167.9-375,375-375S875,292.9,875,500z"/>
	<path class="st1" d="M755,775C688,837.1,598.5,875,500,875s-188-37.9-255-100c82-32.1,168.5-48.2,255-48.2S673,742.9,755,775z"/>
	<path class="st1" d="M867.5,575c-15.6,76.9-54.7,145.2-109.5,197.2c-0.3,0.2-0.5,0.5-0.8,0.7c-0.7,0.7-1.5,1.4-2.2,2.1
		c-82-32.1-168.5-48.2-255-48.2S327,742.9,245,775c-56.4-52.3-96.6-121.7-112.5-200c121.2-24.7,244.4-37.1,367.5-37.1
		c7.5,0,15,0,22.5,0.1c7.6,0.1,15.2,0.2,22.8,0.4c2.1,0,4.3,0.1,6.4,0.2c6.9,0.2,13.8,0.4,20.8,0.7c2.6,0.1,5.1,0.2,7.7,0.3
		c3.3,0.1,6.5,0.3,9.8,0.4c2.7,0.1,5.3,0.3,8,0.4c1.5,0.1,3,0.2,4.5,0.2c1.5,0.1,3,0.2,4.5,0.3c2.5,0.1,5,0.3,7.4,0.4
		c1.1,0.1,2.3,0.1,3.4,0.2c2.6,0.2,5.2,0.3,7.7,0.5c1.8,0.1,3.6,0.2,5.4,0.4c1.6,0.1,3.2,0.2,4.8,0.3c2.8,0.2,5.6,0.4,8.3,0.6
		c0.9,0.1,1.7,0.1,2.6,0.2c3.2,0.2,6.5,0.5,9.7,0.8c0.3,0,0.6,0,0.9,0.1c3,0.2,6.1,0.5,9.1,0.8c1,0.1,2.1,0.2,3.2,0.3
		c2.6,0.2,5.2,0.5,7.8,0.7c0.7,0.1,1.3,0.1,2,0.2c0.1,0,0.2,0,0.4,0C742.7,552.9,805.3,562.3,867.5,575z"/>
</g>
<g id="Layer_2">
	<path class="st2" d="M875,500c0,25.7-2.6,50.8-7.5,75c-120.3-33-243.9-49.5-367.5-49.5S252.8,542,132.5,575
		c-4.9-24.2-7.5-49.3-7.5-75c0-207.1,167.9-375,375-375S875,292.9,875,500z"/>
	<path class="st2" d="M867.5,575c-15.9,78.3-56.1,147.7-112.5,200c-84.2-16.8-169.6-25.2-255-25.2s-170.8,8.4-255,25.2
		c-56.4-52.3-96.6-121.7-112.5-200c120.3-33,243.9-49.5,367.5-49.5S747.2,542,867.5,575z"/>
	<path class="st2" d="M755,775C688,837.1,598.5,875,500,875s-188-37.9-255-100c84.2-16.8,169.6-25.2,255-25.2S670.8,758.2,755,775z"
		/>
</g>
</svg>
